<mxfile host="app.diagrams.net" agent="Mozilla/5.0 (X11; Ubuntu; Linux x86_64; rv:132.0) Gecko/20100101 Firefox/132.0" version="26.0.9">
  <diagram name="Page-1" id="rR-ctX1NnMSmoCvz3cQ-">
    <mxGraphModel dx="1364" dy="795" grid="1" gridSize="10" guides="1" tooltips="1" connect="1" arrows="1" fold="1" page="1" pageScale="1" pageWidth="850" pageHeight="1100" math="0" shadow="0">
      <root>
        <mxCell id="0" />
        <mxCell id="1" parent="0" />
        <mxCell id="Lvi6CJh7D1zrARQtDyCP-15" value="" style="edgeStyle=orthogonalEdgeStyle;rounded=0;orthogonalLoop=1;jettySize=auto;html=1;" edge="1" parent="1" source="Lvi6CJh7D1zrARQtDyCP-1">
          <mxGeometry relative="1" as="geometry">
            <mxPoint x="425" y="140" as="targetPoint" />
          </mxGeometry>
        </mxCell>
        <mxCell id="Lvi6CJh7D1zrARQtDyCP-1" value="&lt;div&gt;start&lt;/div&gt;&lt;div&gt;&lt;br&gt;&lt;/div&gt;" style="ellipse;whiteSpace=wrap;html=1;" vertex="1" parent="1">
          <mxGeometry x="365" y="40" width="120" height="80" as="geometry" />
        </mxCell>
        <mxCell id="Lvi6CJh7D1zrARQtDyCP-18" value="" style="edgeStyle=orthogonalEdgeStyle;rounded=0;orthogonalLoop=1;jettySize=auto;html=1;" edge="1" parent="1" source="Lvi6CJh7D1zrARQtDyCP-16" target="Lvi6CJh7D1zrARQtDyCP-17">
          <mxGeometry relative="1" as="geometry" />
        </mxCell>
        <mxCell id="Lvi6CJh7D1zrARQtDyCP-16" value="n" style="rounded=0;whiteSpace=wrap;html=1;" vertex="1" parent="1">
          <mxGeometry x="365" y="140" width="120" height="60" as="geometry" />
        </mxCell>
        <mxCell id="Lvi6CJh7D1zrARQtDyCP-20" value="" style="edgeStyle=orthogonalEdgeStyle;rounded=0;orthogonalLoop=1;jettySize=auto;html=1;" edge="1" parent="1" source="Lvi6CJh7D1zrARQtDyCP-17" target="Lvi6CJh7D1zrARQtDyCP-19">
          <mxGeometry relative="1" as="geometry" />
        </mxCell>
        <mxCell id="Lvi6CJh7D1zrARQtDyCP-17" value="cont = 1" style="whiteSpace=wrap;html=1;rounded=0;" vertex="1" parent="1">
          <mxGeometry x="365" y="220" width="120" height="60" as="geometry" />
        </mxCell>
        <mxCell id="Lvi6CJh7D1zrARQtDyCP-23" value="" style="edgeStyle=orthogonalEdgeStyle;rounded=0;orthogonalLoop=1;jettySize=auto;html=1;" edge="1" parent="1" source="Lvi6CJh7D1zrARQtDyCP-19" target="Lvi6CJh7D1zrARQtDyCP-22">
          <mxGeometry relative="1" as="geometry" />
        </mxCell>
        <mxCell id="Lvi6CJh7D1zrARQtDyCP-19" value="ris = 0" style="whiteSpace=wrap;html=1;rounded=0;" vertex="1" parent="1">
          <mxGeometry x="365" y="300" width="120" height="60" as="geometry" />
        </mxCell>
        <mxCell id="Lvi6CJh7D1zrARQtDyCP-25" value="" style="edgeStyle=orthogonalEdgeStyle;rounded=0;orthogonalLoop=1;jettySize=auto;html=1;" edge="1" parent="1" source="Lvi6CJh7D1zrARQtDyCP-22" target="Lvi6CJh7D1zrARQtDyCP-24">
          <mxGeometry relative="1" as="geometry" />
        </mxCell>
        <mxCell id="Lvi6CJh7D1zrARQtDyCP-29" value="true" style="edgeLabel;html=1;align=center;verticalAlign=middle;resizable=0;points=[];" vertex="1" connectable="0" parent="Lvi6CJh7D1zrARQtDyCP-25">
          <mxGeometry x="-0.2798" y="-2" relative="1" as="geometry">
            <mxPoint as="offset" />
          </mxGeometry>
        </mxCell>
        <mxCell id="Lvi6CJh7D1zrARQtDyCP-27" value="" style="edgeStyle=orthogonalEdgeStyle;rounded=0;orthogonalLoop=1;jettySize=auto;html=1;" edge="1" parent="1" source="Lvi6CJh7D1zrARQtDyCP-22" target="Lvi6CJh7D1zrARQtDyCP-26">
          <mxGeometry relative="1" as="geometry" />
        </mxCell>
        <mxCell id="Lvi6CJh7D1zrARQtDyCP-28" value="false" style="edgeLabel;html=1;align=center;verticalAlign=middle;resizable=0;points=[];" vertex="1" connectable="0" parent="Lvi6CJh7D1zrARQtDyCP-27">
          <mxGeometry x="-0.3208" relative="1" as="geometry">
            <mxPoint as="offset" />
          </mxGeometry>
        </mxCell>
        <mxCell id="Lvi6CJh7D1zrARQtDyCP-22" value="n &amp;gt; 0" style="rhombus;whiteSpace=wrap;html=1;rounded=0;" vertex="1" parent="1">
          <mxGeometry x="385" y="390" width="80" height="80" as="geometry" />
        </mxCell>
        <mxCell id="Lvi6CJh7D1zrARQtDyCP-31" value="" style="edgeStyle=orthogonalEdgeStyle;rounded=0;orthogonalLoop=1;jettySize=auto;html=1;" edge="1" parent="1" source="Lvi6CJh7D1zrARQtDyCP-24" target="Lvi6CJh7D1zrARQtDyCP-30">
          <mxGeometry relative="1" as="geometry" />
        </mxCell>
        <mxCell id="Lvi6CJh7D1zrARQtDyCP-35" value="" style="edgeStyle=orthogonalEdgeStyle;rounded=0;orthogonalLoop=1;jettySize=auto;html=1;" edge="1" parent="1" source="Lvi6CJh7D1zrARQtDyCP-24" target="Lvi6CJh7D1zrARQtDyCP-34">
          <mxGeometry relative="1" as="geometry" />
        </mxCell>
        <mxCell id="Lvi6CJh7D1zrARQtDyCP-24" value="cont &amp;lt;= n" style="rhombus;whiteSpace=wrap;html=1;rounded=0;" vertex="1" parent="1">
          <mxGeometry x="600" y="490" width="80" height="80" as="geometry" />
        </mxCell>
        <mxCell id="Lvi6CJh7D1zrARQtDyCP-26" value="write errore" style="shape=parallelogram;perimeter=parallelogramPerimeter;whiteSpace=wrap;html=1;fixedSize=1;rounded=0;" vertex="1" parent="1">
          <mxGeometry x="205" y="500" width="120" height="60" as="geometry" />
        </mxCell>
        <mxCell id="Lvi6CJh7D1zrARQtDyCP-33" value="" style="edgeStyle=orthogonalEdgeStyle;rounded=0;orthogonalLoop=1;jettySize=auto;html=1;" edge="1" parent="1" source="Lvi6CJh7D1zrARQtDyCP-30" target="Lvi6CJh7D1zrARQtDyCP-32">
          <mxGeometry relative="1" as="geometry" />
        </mxCell>
        <mxCell id="Lvi6CJh7D1zrARQtDyCP-30" value="ris = ris + ( cont * cont)" style="whiteSpace=wrap;html=1;rounded=0;" vertex="1" parent="1">
          <mxGeometry x="580" y="620" width="120" height="60" as="geometry" />
        </mxCell>
        <mxCell id="Lvi6CJh7D1zrARQtDyCP-38" style="edgeStyle=orthogonalEdgeStyle;rounded=0;orthogonalLoop=1;jettySize=auto;html=1;" edge="1" parent="1">
          <mxGeometry relative="1" as="geometry">
            <mxPoint x="490" y="530" as="targetPoint" />
            <mxPoint x="580" y="760" as="sourcePoint" />
          </mxGeometry>
        </mxCell>
        <mxCell id="Lvi6CJh7D1zrARQtDyCP-32" value="cont += 1" style="whiteSpace=wrap;html=1;rounded=0;" vertex="1" parent="1">
          <mxGeometry x="580" y="720" width="120" height="60" as="geometry" />
        </mxCell>
        <mxCell id="Lvi6CJh7D1zrARQtDyCP-37" value="" style="edgeStyle=orthogonalEdgeStyle;rounded=0;orthogonalLoop=1;jettySize=auto;html=1;" edge="1" parent="1" source="Lvi6CJh7D1zrARQtDyCP-34" target="Lvi6CJh7D1zrARQtDyCP-36">
          <mxGeometry relative="1" as="geometry" />
        </mxCell>
        <mxCell id="Lvi6CJh7D1zrARQtDyCP-34" value="write ris" style="shape=parallelogram;perimeter=parallelogramPerimeter;whiteSpace=wrap;html=1;fixedSize=1;rounded=0;" vertex="1" parent="1">
          <mxGeometry x="740" y="500" width="120" height="60" as="geometry" />
        </mxCell>
        <mxCell id="Lvi6CJh7D1zrARQtDyCP-40" style="edgeStyle=orthogonalEdgeStyle;rounded=0;orthogonalLoop=1;jettySize=auto;html=1;" edge="1" parent="1" source="Lvi6CJh7D1zrARQtDyCP-36">
          <mxGeometry relative="1" as="geometry">
            <mxPoint x="800" y="840" as="targetPoint" />
          </mxGeometry>
        </mxCell>
        <mxCell id="Lvi6CJh7D1zrARQtDyCP-36" value="end" style="ellipse;whiteSpace=wrap;html=1;rounded=0;" vertex="1" parent="1">
          <mxGeometry x="760" y="630" width="80" height="80" as="geometry" />
        </mxCell>
        <mxCell id="Lvi6CJh7D1zrARQtDyCP-39" value="" style="endArrow=classic;html=1;rounded=0;entryX=0;entryY=0.5;entryDx=0;entryDy=0;" edge="1" parent="1" target="Lvi6CJh7D1zrARQtDyCP-24">
          <mxGeometry width="50" height="50" relative="1" as="geometry">
            <mxPoint x="490" y="530" as="sourcePoint" />
            <mxPoint x="540" y="480" as="targetPoint" />
          </mxGeometry>
        </mxCell>
        <mxCell id="Lvi6CJh7D1zrARQtDyCP-41" value="" style="endArrow=classic;html=1;rounded=0;" edge="1" parent="1">
          <mxGeometry width="50" height="50" relative="1" as="geometry">
            <mxPoint x="800" y="840" as="sourcePoint" />
            <mxPoint x="250" y="840" as="targetPoint" />
          </mxGeometry>
        </mxCell>
        <mxCell id="Lvi6CJh7D1zrARQtDyCP-42" value="" style="endArrow=classic;html=1;rounded=0;entryX=0.375;entryY=0.967;entryDx=0;entryDy=0;entryPerimeter=0;" edge="1" parent="1" target="Lvi6CJh7D1zrARQtDyCP-26">
          <mxGeometry width="50" height="50" relative="1" as="geometry">
            <mxPoint x="250" y="840" as="sourcePoint" />
            <mxPoint x="300" y="790" as="targetPoint" />
          </mxGeometry>
        </mxCell>
      </root>
    </mxGraphModel>
  </diagram>
</mxfile>
